<svg id="Layer_1" data-name="Layer 1" xmlns="http://www.w3.org/2000/svg" viewBox="0 0 512 512"><defs><style>.cls-1{fill:#fffdfd;}</style></defs><title>facebook white</title><path d="M297.28,508.67q-3.2.52-6.42,1Q294.08,509.19,297.28,508.67Z"/><path d="M302.4,507.79l-3.06.54Z"/><path d="M285.14,510.34q-3.74.42-7.53.74Q281.39,510.77,285.14,510.34Z"/><path d="M290.05,509.74c-1.2.16-2.41.31-3.61.45C287.65,510,288.86,509.9,290.05,509.74Z"/><path d="M309.37,506.41l-2.7.57Z"/><path d="M326.66,502.11l-2.18.61Z"/><path d="M321.43,503.54l-2.37.62Z"/><path d="M314.59,505.25l-2.52.57Z"/><path d="M277.53,511.09q-2,.17-4,.3Q275.51,511.26,277.53,511.09Z"/><path class="cls-1" d="M512,256C512,114.64,397.36,0,256,0S0,114.64,0,256,114.64,512,256,512c1.5,0,3,0,4.5-.06V312.66h-55v-64.1h55V201.39c0-54.7,33.39-84.48,82.19-84.48A452.75,452.75,0,0,1,392,119.43v57.17H358.35c-26.55,0-31.69,12.62-31.69,31.13v40.82h63.48l-8.27,64.1h-55.2V502.11C433.67,471.43,512,372.85,512,256Z"/><path d="M272.91,511.43q-4,.26-8,.4Q268.92,511.69,272.91,511.43Z"/><path d="M264.75,511.84q-2.12.07-4.25.11Q262.63,511.91,264.75,511.84Z"/></svg>